<svg width="32" height="32" viewBox="0 0 32 32" fill="none" xmlns="http://www.w3.org/2000/svg">
<circle cx="16" cy="16" r="16" fill="#F0B719"/>
<path d="M16 6C12.13 6 9 9.13 9 13C9 18.25 16 26 16 26C16 26 23 18.25 23 13C23 9.13 19.87 6 16 6ZM16 15.5C15.337 15.5 14.7011 15.2366 14.2322 14.7678C13.7634 14.2989 13.5 13.663 13.5 13C13.5 12.337 13.7634 11.7011 14.2322 11.2322C14.7011 10.7634 15.337 10.5 16 10.5C16.663 10.5 17.2989 10.7634 17.7678 11.2322C18.2366 11.7011 18.5 12.337 18.5 13C18.5 13.663 18.2366 14.2989 17.7678 14.7678C17.2989 15.2366 16.663 15.5 16 15.5Z" fill="white"/>
</svg>
