<svg width="32" height="32" viewBox="0 0 32 32" fill="none" xmlns="http://www.w3.org/2000/svg">
<circle cx="16" cy="16" r="16" fill="#F0B719"/>
<g clip-path="url(#clip0_402_74)">
<path d="M17.1175 11.11C17.9425 11.11 18.6175 10.435 18.6175 9.60999C18.6175 8.78499 17.9425 8.10999 17.1175 8.10999C16.2925 8.10999 15.6175 8.78499 15.6175 9.60999C15.6175 10.435 16.2925 11.11 17.1175 11.11ZM14.74 20.11L15.1675 18.235L16.7425 19.735V23.485C16.7425 23.8975 17.08 24.235 17.4925 24.235C17.905 24.235 18.2425 23.8975 18.2425 23.485V19.255C18.2425 18.8425 18.0775 18.4525 17.7775 18.1675L16.6675 17.11L17.1175 14.86C17.92 15.79 19.0825 16.4575 20.3875 16.6675C20.8375 16.735 21.2425 16.375 21.2425 15.9175C21.2425 15.55 20.9725 15.2425 20.605 15.1825C19.465 14.995 18.52 14.32 18.0175 13.435L17.2675 12.235C16.9675 11.785 16.5175 11.485 15.9925 11.485C15.7675 11.485 15.6175 11.56 15.3925 11.56L12.4075 12.82C11.8525 13.06 11.4925 13.6 11.4925 14.2075V15.985C11.4925 16.3975 11.83 16.735 12.2425 16.735C12.655 16.735 12.9925 16.3975 12.9925 15.985V14.185L14.3425 13.66L13.1425 19.735L10.2025 19.135C9.7975 19.0525 9.4 19.315 9.3175 19.72V19.75C9.235 20.155 9.4975 20.5525 9.9025 20.635L12.985 21.25C13.78 21.4075 14.56 20.905 14.74 20.11Z" fill="white"/>
</g>
<defs>
<clipPath id="clip0_402_74">
<rect width="18" height="18" fill="white" transform="translate(7 7)"/>
</clipPath>
</defs>
</svg>
